<svg xmlns="http://www.w3.org/2000/svg" width="480pt" height="290pt" viewBox="0 0 480 290" version="1.1" xmlns:xlink="http://www.w3.org/1999/xlink">
  <g id="surface2" transform="matrix(1,0,0,1,-0.5,-0.5)" data-tpl_matrix="1,0,0,1,-0.5,-0.5">
    <path style="stroke:none;fill-rule:evenodd;fill:rgb(0.000000%,49.019608%,75.686275%);fill-opacity:1" d="M 269.148438 122.550781 C 271.25 118.214844 272.332031 113.484375 272.398438 108.351562 C 272.332031 102.851562 271.101562 97.832031 268.699219 93.300781 C 266.265625 88.734375 262.964844 84.949219 258.800781 81.949219 C 254.632812 78.917969 249.917969 76.984375 244.648438 76.148438 L 241.300781 66.699219 L 241.300781 101 C 241.300781 102.601562 241.75 104.132812 242.648438 105.601562 C 243.582031 107 244.785156 108.035156 246.25 108.699219 L 258 114.148438 L 245.949219 79.898438 C 250.382812 80.898438 254.316406 82.75 257.75 85.449219 C 261.183594 88.148438 263.898438 91.464844 265.898438 95.398438 C 267.867188 99.367188 268.882812 103.683594 268.949219 108.351562 C 268.882812 112.984375 267.898438 117.234375 266 121.101562 L 241.300781 109.800781 L 241.300781 111.148438 C 241.300781 111.75 241.464844 112.316406 241.800781 112.851562 C 242.132812 113.382812 242.566406 113.765625 243.101562 114 L 264.5 123.800781 L 267.648438 125.25 C 268.183594 124.382812 268.683594 123.484375 269.148438 122.550781 M 262.398438 131.800781 L 259.050781 130.25 L 241.300781 122.101562 L 241.300781 123.5 C 241.300781 124.066406 241.464844 124.617188 241.800781 125.148438 C 242.132812 125.683594 242.566406 126.066406 243.101562 126.300781 L 256.300781 132.351562 L 259.898438 134 C 260.765625 133.300781 261.601562 132.566406 262.398438 131.800781 M 257.5 135.699219 L 253.699219 133.949219 L 241.300781 128.25 L 241.300781 129.648438 C 241.300781 130.214844 241.464844 130.765625 241.800781 131.300781 C 242.132812 131.832031 242.566406 132.214844 243.101562 132.449219 L 250.050781 135.648438 L 254.25 137.550781 C 255.351562 137.015625 256.433594 136.398438 257.5 135.699219 M 264.25 129.851562 L 261 128.351562 L 243.101562 120.148438 C 242.566406 119.917969 242.132812 119.535156 241.800781 119 C 241.464844 118.464844 241.300781 117.898438 241.300781 117.300781 L 241.300781 115.949219 L 263.050781 125.949219 L 266.25 127.398438 C 265.617188 128.234375 264.949219 129.050781 264.25 129.851562 "/>
    <path style="stroke:none;fill-rule:evenodd;fill:rgb(0.000000%,28.235294%,38.823529%);fill-opacity:1" d="M 213.300781 125.25 L 216.449219 123.800781 L 237.800781 114 C 238.367188 113.765625 238.816406 113.382812 239.148438 112.851562 C 239.484375 112.316406 239.648438 111.75 239.648438 111.148438 L 239.648438 109.800781 L 214.949219 121.101562 C 213.015625 117.234375 212.035156 112.984375 212 108.351562 C 212.035156 103.648438 213.050781 99.332031 215.050781 95.398438 C 217.015625 91.464844 219.734375 88.148438 223.199219 85.449219 C 226.632812 82.75 230.566406 80.898438 235 79.898438 L 222.949219 114.148438 L 234.699219 108.699219 C 236.167969 108.066406 237.367188 107.035156 238.300781 105.601562 C 239.199219 104.132812 239.648438 102.601562 239.648438 101 L 239.648438 66.699219 L 236.300781 76.148438 C 231.035156 76.984375 226.316406 78.898438 222.148438 81.898438 C 217.984375 84.933594 214.683594 88.734375 212.25 93.300781 C 209.851562 97.867188 208.617188 102.882812 208.550781 108.351562 C 208.582031 113.484375 209.667969 118.214844 211.800781 122.550781 C 212.265625 123.484375 212.765625 124.382812 213.300781 125.25 M 221.050781 134 L 224.648438 132.351562 L 237.800781 126.300781 C 238.367188 126.066406 238.816406 125.683594 239.148438 125.148438 C 239.484375 124.617188 239.648438 124.066406 239.648438 123.5 L 239.648438 122.101562 L 221.898438 130.25 L 218.5 131.800781 C 219.332031 132.566406 220.183594 133.300781 221.050781 134 M 226.699219 137.550781 L 230.898438 135.648438 L 237.800781 132.449219 C 238.367188 132.214844 238.816406 131.832031 239.148438 131.300781 C 239.484375 130.800781 239.648438 130.25 239.648438 129.648438 L 239.648438 128.25 L 227.199219 133.949219 L 223.449219 135.699219 C 224.484375 136.367188 225.566406 136.984375 226.699219 137.550781 M 214.699219 127.398438 L 217.898438 125.949219 L 239.648438 115.949219 L 239.648438 117.300781 C 239.648438 117.898438 239.484375 118.464844 239.148438 119 C 238.785156 119.535156 238.332031 119.917969 237.800781 120.148438 L 219.949219 128.351562 L 216.648438 129.851562 C 215.984375 129.050781 215.332031 128.234375 214.699219 127.398438 "/>
  </g>
  <g id="surface4">
    <text style="fill:rgb(0,125,193)" font-family="Righteous" font-size="50" transform="matrix(1,0,0,1,133.25,173.8)" xml:space="preserve"><![CDATA[Inovando]]></text>
    <text style="fill:rgb(0,72,99)" font-family="Roboto Condensed" font-size="35" transform="matrix(1,0,0,1,197.8,209.55)" xml:space="preserve"><![CDATA[Online]]></text>
  </g>
</svg>